# xmcd
#
# Track frame offsets: 
#        150
#        15827
#        38792
#        61373
#        83490
#        108857
#        123743
#        175562
#        199786
#        222422
#        247256
#        276827
#        294213
#        318893
#        334399
#
# Disc length: 4796 seconds
#
# Revision: 0
# Processed by: cddbd v1.5.2PL0 Copyright (c) Steve Scherf et al.
# Submitted via: ExactAudioCopy v0.99pb5
#
DISCID=d112ba0f
DTITLE=Prince - Come-era Mixes
DYEAR=1994
DGENRE=New Wave
TTITLE0=Loose
TTITLE1=Race
TTITLE2=TMBGITW
TTITLE3=Now
TTITLE4=Get Wild (Video Version)
TTITLE5=Come (Version 2)
TTITLE6=Come (Remix)
TTITLE7=Pheromone (Remix)
TTITLE8=Loose (Remix)
TTITLE9=Race (Remix)
TTITLE10=Letitgo (Remix)
TTITLE11=Interactive (Remix)
TTITLE12=Come (Version 1)
TTITLE13=Loose (Rudedog Remix)
TTITLE14=The Greatest Romance Ever Sold (Jason Nevins Romance Beats)(b
TTITLE14=onus track)
EXTD=
EXTT0=
EXTT1=
EXTT2=
EXTT3=
EXTT4=
EXTT5=
EXTT6=
EXTT7=
EXTT8=
EXTT9=
EXTT10=
EXTT11=
EXTT12=
EXTT13=
EXTT14=
PLAYORDER=
